<?xml version="1.0" encoding="UTF-8"?>
<svg version="1.1" xmlns="http://www.w3.org/2000/svg" width="500" height="500">
<path d="M0 0 C10.8138514 9.5746756 19.79750637 20.09497448 27.671875 32.171875 C28.32800781 33.15414062 28.98414063 34.13640625 29.66015625 35.1484375 C64.2032435 88.72829629 68.34296405 160.62451125 55.99462891 221.58154297 C49.01255304 253.13332889 36.05813255 282.96704748 15.671875 308.171875 C15.22763184 308.72294922 14.78338867 309.27402344 14.32568359 309.84179688 C-13.9297126 344.6206516 -52.64727724 364.51521019 -96.69921875 370.640625 C-99.58288101 370.92859127 -102.43132309 371.08612668 -105.328125 371.171875 C-106.60816406 371.21183594 -107.88820313 371.25179688 -109.20703125 371.29296875 C-138.78976859 371.88766455 -168.29235828 367.53816935 -195.328125 355.171875 C-196.42511719 354.67042969 -197.52210938 354.16898437 -198.65234375 353.65234375 C-213.49660066 346.554362 -226.19852927 337.2245993 -238.328125 326.171875 C-239.12605469 325.45773437 -239.92398438 324.74359375 -240.74609375 324.0078125 C-252.41252462 313.00014184 -261.66003743 299.18342849 -269.328125 285.171875 C-269.66650391 284.56085938 -270.00488281 283.94984375 -270.35351562 283.3203125 C-284.72365843 257.05290041 -290.79743556 228.64166852 -294.328125 199.171875 C-294.43415039 198.30256348 -294.54017578 197.43325195 -294.64941406 196.53759766 C-301.02530283 136.88076026 -288.50106709 70.73111608 -250.328125 23.171875 C-247.82433716 20.26206751 -245.26559811 17.42984171 -242.63671875 14.6328125 C-240.58594189 12.44670519 -238.63692225 10.2108595 -236.703125 7.921875 C-233.21600202 3.93428529 -229.43177838 0.5150851 -225.328125 -2.828125 C-224.38066406 -3.6015625 -223.43320313 -4.375 -222.45703125 -5.171875 C-158.96823625 -55.98671186 -61.21787737 -52.77913732 0 0 Z " fill="#BF3B70" transform="translate(364.328125,94.828125)"/>
<path d="M0 0 C10.8138514 9.5746756 19.79750637 20.09497448 27.671875 32.171875 C28.32800781 33.15414062 28.98414063 34.13640625 29.66015625 35.1484375 C64.2032435 88.72829629 68.34296405 160.62451125 55.99462891 221.58154297 C49.01255304 253.13332889 36.05813255 282.96704748 15.671875 308.171875 C15.22763184 308.72294922 14.78338867 309.27402344 14.32568359 309.84179688 C-13.9297126 344.6206516 -52.64727724 364.51521019 -96.69921875 370.640625 C-99.58288101 370.92859127 -102.43132309 371.08612668 -105.328125 371.171875 C-106.60816406 371.21183594 -107.88820313 371.25179688 -109.20703125 371.29296875 C-138.78976859 371.88766455 -168.29235828 367.53816935 -195.328125 355.171875 C-196.42511719 354.67042969 -197.52210938 354.16898437 -198.65234375 353.65234375 C-213.49660066 346.554362 -226.19852927 337.2245993 -238.328125 326.171875 C-239.12605469 325.45773437 -239.92398438 324.74359375 -240.74609375 324.0078125 C-252.41252462 313.00014184 -261.66003743 299.18342849 -269.328125 285.171875 C-269.66650391 284.56085938 -270.00488281 283.94984375 -270.35351562 283.3203125 C-284.72365843 257.05290041 -290.79743556 228.64166852 -294.328125 199.171875 C-294.43415039 198.30256348 -294.54017578 197.43325195 -294.64941406 196.53759766 C-301.02530283 136.88076026 -288.50106709 70.73111608 -250.328125 23.171875 C-247.82433716 20.26206751 -245.26559811 17.42984171 -242.63671875 14.6328125 C-240.58594189 12.44670519 -238.63692225 10.2108595 -236.703125 7.921875 C-233.21600202 3.93428529 -229.43177838 0.5150851 -225.328125 -2.828125 C-224.38066406 -3.6015625 -223.43320313 -4.375 -222.45703125 -5.171875 C-158.96823625 -55.98671186 -61.21787737 -52.77913732 0 0 Z M-182.328125 -5.828125 C-183.47286567 -4.93089583 -184.61847394 -4.03477031 -185.765625 -3.140625 C-188.57827468 -0.60238017 -190.28991667 1.98717448 -192.328125 5.171875 C-193.21105748 6.18328372 -194.10818642 7.18239403 -195.015625 8.171875 C-237.87438012 57.49174899 -241.94552118 135.67400505 -237.81640625 197.3984375 C-234.85335308 237.34802034 -223.27953649 285.87346166 -196.328125 317.171875 C-195.668125 317.171875 -195.008125 317.171875 -194.328125 317.171875 C-194.121875 317.8525 -193.915625 318.533125 -193.703125 319.234375 C-190.75652577 325.52938245 -185.61237127 330.00459391 -180.37109375 334.4296875 C-179.07322713 335.53647242 -177.80092102 336.67453068 -176.56640625 337.8515625 C-166.8845421 346.96637604 -154.86181768 353.0231527 -142.328125 357.171875 C-141.090625 357.584375 -139.853125 357.996875 -138.578125 358.421875 C-114.85484427 363.89647825 -89.36981752 360.13898314 -68.328125 348.171875 C-64.9029142 345.95445203 -61.5946462 343.61584829 -58.328125 341.171875 C-57.5753125 340.64980469 -56.8225 340.12773437 -56.046875 339.58984375 C-55.4796875 339.12191406 -54.9125 338.65398437 -54.328125 338.171875 C-54.328125 337.511875 -54.328125 336.851875 -54.328125 336.171875 C-53.73386719 335.90117187 -53.13960937 335.63046875 -52.52734375 335.3515625 C-44.64090609 331.12118209 -39.35222119 322.2893446 -34.328125 315.171875 C-33.60625 314.15609375 -32.884375 313.1403125 -32.140625 312.09375 C-14.94174978 286.6639845 -5.69006441 257.14999077 -0.328125 227.171875 C-0.01859075 225.52727565 0.29128709 223.88274093 0.6015625 222.23828125 C3.9855084 203.57231163 3.88720837 184.85385367 3.91210938 165.93945312 C3.91647899 163.1085918 3.9303385 160.27803781 3.953125 157.44726562 C4.24650367 120.20238435 -0.50232818 83.28261502 -16.328125 49.171875 C-16.88043941 47.92776284 -17.43117568 46.68294908 -17.98046875 45.4375 C-22.19193876 36.007417 -26.88359076 26.7084948 -33.37890625 18.6171875 C-35.328125 16.171875 -35.328125 16.171875 -36.69921875 13.78515625 C-38.8900601 10.27035323 -41.5675476 7.37714739 -44.390625 4.359375 C-44.96989746 3.7391748 -45.54916992 3.11897461 -46.14599609 2.47998047 C-50.8516214 -2.47719934 -55.81126467 -6.78711265 -61.328125 -10.828125 C-62.19953125 -11.50359375 -63.0709375 -12.1790625 -63.96875 -12.875 C-100.82820886 -40.88818874 -148.45253759 -34.87218617 -182.328125 -5.828125 Z " fill="#4511B0" transform="translate(364.328125,94.828125)"/>
<path d="M0 0 C1.98260599 0.42164019 3.96107245 0.86278778 5.9375 1.3125 C7.59072266 1.67794922 7.59072266 1.67794922 9.27734375 2.05078125 C10.17582031 2.36402344 11.07429688 2.67726563 12 3 C12.33 3.99 12.66 4.98 13 6 C13.61488281 5.98839844 14.22976562 5.97679687 14.86328125 5.96484375 C15.67152344 5.95582031 16.47976562 5.94679688 17.3125 5.9375 C18.51326172 5.92009766 18.51326172 5.92009766 19.73828125 5.90234375 C22 6 22 6 25 7 C26.76109396 7.09354378 28.52548718 7.13069971 30.2890625 7.1328125 C31.82433594 7.13474609 31.82433594 7.13474609 33.390625 7.13671875 C34.99164063 7.13091797 34.99164063 7.13091797 36.625 7.125 C38.23761719 7.13080078 38.23761719 7.13080078 39.8828125 7.13671875 C40.90375 7.13542969 41.9246875 7.13414062 42.9765625 7.1328125 C43.91580566 7.13168457 44.85504883 7.13055664 45.82275391 7.12939453 C47.97824346 7.24306045 47.97824346 7.24306045 49 6 C50.51928038 5.92820036 52.04167482 5.91607993 53.5625 5.9375 C54.38878906 5.94652344 55.21507812 5.95554687 56.06640625 5.96484375 C56.70449219 5.97644531 57.34257812 5.98804688 58 6 C58 6.99 58 7.98 58 9 C58.66 8.34 59.32 7.68 60 7 C62.29296875 7.30859375 62.29296875 7.30859375 65 8 C66.32451172 8.26490234 66.32451172 8.26490234 67.67578125 8.53515625 C70.33203125 9.06640625 70.33203125 9.06640625 72.98828125 9.59765625 C73.65214844 9.73042969 74.31601562 9.86320312 75 10 C73 13 73 13 69.7265625 13.9140625 C68.36210042 14.16626086 66.99458658 14.40230428 65.625 14.625 C64.90038574 14.74979736 64.17577148 14.87459473 63.42919922 15.00317383 C36.75294172 19.44332404 9.2244765 16.97593159 -17 11 C-13.93753253 9.21590198 -11.77920727 8.77119979 -8.25 8.875 C-7.45078125 8.89304687 -6.6515625 8.91109375 -5.828125 8.9296875 C-5.22484375 8.95289063 -4.6215625 8.97609375 -4 9 C-4 9.66 -4 10.32 -4 11 C-1.03 11.33 1.94 11.66 5 12 C4.34 11.67 3.68 11.34 3 11 C2.5859375 8.93359375 2.5859375 8.93359375 2.375 6.4375 C2.30023438 5.61121094 2.22546875 4.78492188 2.1484375 3.93359375 C2.09945312 3.29550781 2.05046875 2.65742188 2 2 C1.34 2 0.68 2 0 2 C0 1.34 0 0.68 0 0 Z " fill="#4D1CAF" transform="translate(214,449)"/>
<path d="M0 0 C0.33 0 0.66 0 1 0 C0.67 10.23 0.34 20.46 0 31 C-0.66 31 -1.32 31 -2 31 C-1.8812206 35.59000248 -1.75693958 40.17981177 -1.62768555 44.76953125 C-1.58452692 46.32906099 -1.54283944 47.88863219 -1.50268555 49.44824219 C-1.44451787 51.69739242 -1.38096077 53.94633759 -1.31640625 56.1953125 C-1.29969376 56.8861795 -1.28298126 57.57704651 -1.26576233 58.28884888 C-1.14515823 62.28111546 -0.68372637 66.07042584 0 70 C0.11609644 71.79108562 0.19792628 73.58470839 0.24609375 75.37890625 C0.27767578 76.37712402 0.30925781 77.3753418 0.34179688 78.40380859 C0.37337891 79.44617676 0.40496094 80.48854492 0.4375 81.5625 C0.39883388 95.64461647 0.39883388 95.64461647 4 109 C4.06996014 110.70702735 4.08440154 112.41668003 4.0625 114.125 C4.05347656 115.03507812 4.04445312 115.94515625 4.03515625 116.8828125 C4.02355469 117.58148438 4.01195312 118.28015625 4 119 C4.66 119 5.32 119 6 119 C7.40454548 125.11980533 8.23268915 130.71739294 8 137 C5.26150041 131.96962307 4.2547806 126.54975102 3 121 C2.75121094 119.92621094 2.50242188 118.85242188 2.24609375 117.74609375 C-2.53679098 94.9334865 -3.29633657 71.78576459 -3.375 48.5625 C-3.38276459 47.52256897 -3.39052917 46.48263794 -3.39852905 45.41119385 C-3.48890119 30.06246196 -2.25570697 15.18099219 0 0 Z " fill="#983288" transform="translate(129,209)"/>
<path d="M0 0 C0.33 0 0.66 0 1 0 C0.99333817 0.67031754 0.98667633 1.34063507 0.97981262 2.03126526 C-0.15439971 52.91729394 -0.15439971 52.91729394 6.546875 103.19921875 C6.98471809 105.90554196 6.91830358 107.44984614 6 110 C3.02079595 99.55292446 0.88079739 89.65283697 0.24609375 78.78515625 C0.10097396 75.91708675 0.10097396 75.91708675 -1 73 C-1.09420799 70.94156324 -1.1279359 68.88017099 -1.12939453 66.81958008 C-1.13254669 65.54427933 -1.13569885 64.26897858 -1.13894653 62.95503235 C-1.13715568 61.55986497 -1.13510446 60.1646979 -1.1328125 58.76953125 C-1.13348645 57.33566776 -1.13445725 55.90180438 -1.13571167 54.46794128 C-1.1371867 51.45932937 -1.13504192 48.45074713 -1.13037109 45.44213867 C-1.12469961 41.60355393 -1.12793758 37.76503951 -1.13394356 33.92645741 C-1.13757643 30.9623106 -1.13639767 27.99818015 -1.13381577 25.03403282 C-1.13315268 23.61998168 -1.1339531 22.20592901 -1.13629532 20.79187965 C-1.14535639 13.77813698 -1.11093836 6.93426321 0 0 Z " fill="#530E96" transform="translate(126,224)"/>
<path d="M0 0 C0.87503174 -0.00950684 1.75006348 -0.01901367 2.65161133 -0.02880859 C8.78341255 0.00225598 14.47298754 0.8454561 20.4375 2.25 C20.4375 2.58 20.4375 2.91 20.4375 3.25 C19.43895996 3.22905273 18.44041992 3.20810547 17.41162109 3.18652344 C13.68813557 3.113833 9.9647121 3.0680958 6.24072266 3.03027344 C4.63254226 3.01022373 3.02443417 2.98297636 1.41650391 2.94824219 C-0.9022002 2.89942736 -3.21993625 2.87696572 -5.5390625 2.859375 C-6.60817368 2.82840729 -6.60817368 2.82840729 -7.69888306 2.79681396 C-12.84948305 2.7945264 -15.47466523 4.26006644 -19.5625 7.25 C-22.375 6.9375 -22.375 6.9375 -24.5625 6.25 C-24.8925 6.58 -25.2225 6.91 -25.5625 7.25 C-29.0625 7.75 -29.0625 7.75 -32.5625 8.25 C-32.8925 8.58 -33.2225 8.91 -33.5625 9.25 C-35.22867115 9.29063832 -36.89638095 9.292721 -38.5625 9.25 C-38.5625 9.91 -38.5625 10.57 -38.5625 11.25 C-40.5425 11.58 -42.5225 11.91 -44.5625 12.25 C-40.37226403 8.39364737 -36.25751845 6.80442316 -30.9375 5.125 C-30.12772705 4.86638184 -29.3179541 4.60776367 -28.48364258 4.34130859 C-18.83447802 1.32407458 -10.1084383 0.08971206 0 0 Z " fill="#BB3E84" transform="translate(245.5625,63.75)"/>
<path d="M0 0 C0.73371826 0.00008057 1.46743652 0.00016113 2.22338867 0.00024414 C4.42256878 -0.00191356 6.62122323 -0.01997878 8.8203125 -0.0390625 C16.41022125 -0.0685297 23.64395226 0.2040657 31.02539062 2.18554688 C31.02539062 2.84554687 31.02539062 3.50554687 31.02539062 4.18554688 C31.66347656 4.10175781 32.3015625 4.01796875 32.95898438 3.93164062 C34.19841797 3.77888672 34.19841797 3.77888672 35.46289062 3.62304688 C36.69845703 3.46642578 36.69845703 3.46642578 37.95898438 3.30664062 C38.98185547 3.24669922 38.98185547 3.24669922 40.02539062 3.18554688 C40.52039063 3.68054688 40.52039063 3.68054688 41.02539062 4.18554688 C42.01539063 4.51554687 43.00539063 4.84554687 44.02539062 5.18554688 C44.52039063 6.67054687 44.52039063 6.67054687 45.02539062 8.18554688 C46.52524672 9.85265034 46.52524672 9.85265034 48.02539062 11.18554688 C44.43415278 10.23276949 41.19556345 9.26108801 37.78710938 7.74804688 C22.09818755 0.94514391 2.6382679 -0.16626647 -13.91601562 3.74804688 C-15.97460938 4.18554688 -15.97460938 4.18554688 -19.97460938 4.18554688 C-19.97460938 3.52554688 -19.97460938 2.86554688 -19.97460938 2.18554688 C-17.92382812 1.95768229 -15.87304688 1.72981771 -13.82226562 1.50195312 C-9.29364247 0.72643838 -5.02665094 0.01749733 0 0 Z " fill="#520F9B" transform="translate(239.974609375,62.814453125)"/>
<path d="M0 0 C0.33 0 0.66 0 1 0 C2.20900609 5.82521118 2.25801442 11.63855997 2.4375 17.5625 C2.39883388 31.64461647 2.39883388 31.64461647 6 45 C6.06996014 46.70702735 6.08440154 48.41668003 6.0625 50.125 C6.05347656 51.03507812 6.04445312 51.94515625 6.03515625 52.8828125 C6.02355469 53.58148438 6.01195312 54.28015625 6 55 C6.66 55 7.32 55 8 55 C9.40454548 61.11980533 10.23268915 66.71739294 10 73 C0.97681955 56.42523077 0.95520522 33.27572264 0.4375 14.875 C0.39419844 13.42707378 0.35058094 11.97915698 0.30664062 10.53125 C0.20078894 7.02093422 0.09919761 3.51051087 0 0 Z " fill="#A33681" transform="translate(127,273)"/>
<path d="M0 0 C0.33 0 0.66 0 1 0 C2.54238538 10.57623196 3.279233 20.85277037 3.1953125 31.5625 C3.19156674 32.97452592 3.1887272 34.3865545 3.18673706 35.79858398 C3.17922327 39.45466725 3.15968576 43.11058298 3.1373291 46.76660156 C3.11660103 50.52146134 3.10767867 54.27634909 3.09765625 58.03125 C3.07642366 65.35424176 3.04244296 72.67709711 3 80 C2.67 80 2.34 80 2 80 C1.67 59.87 1.34 39.74 1 19 C0.34 18.67 -0.32 18.34 -1 18 C-0.505 9.09 -0.505 9.09 0 0 Z " fill="#A13683" transform="translate(365,208)"/>
<path d="M0 0 C0.66 0.33 1.32 0.66 2 1 C-0.10195888 4.15293832 -0.97867842 4.66997393 -4.25 6.25 C-8.42952491 8.45081263 -10.99391501 10.88360723 -13.80859375 14.64453125 C-14.20175781 15.09183594 -14.59492188 15.53914063 -15 16 C-15.66 16 -16.32 16 -17 16 C-17 16.66 -17 17.32 -17 18 C-17.66 18 -18.32 18 -19 18 C-19 18.66 -19 19.32 -19 20 C-19.99 20 -20.98 20 -22 20 C-22.12375 20.61875 -22.2475 21.2375 -22.375 21.875 C-23 24 -23 24 -25 26 C-26.03161608 27.98387708 -27.03523618 29.98276656 -28 32 C-28.33 31.01 -28.66 30.02 -29 29 C-29.66 29.33 -30.32 29.66 -31 30 C-25.70295546 17.47971291 -11.19429164 6.89503471 0 0 Z " fill="#AE388A" transform="translate(199,76)"/>
<path d="M0 0 C0 9.29063868 -11.08690235 19.18268621 -17 26 C-19 23 -19 23 -19 20 C-17.35 20 -15.7 20 -14 20 C-13.87882812 19.36191406 -13.75765625 18.72382813 -13.6328125 18.06640625 C-13.46523438 17.24011719 -13.29765625 16.41382813 -13.125 15.5625 C-12.96257812 14.73878906 -12.80015625 13.91507812 -12.6328125 13.06640625 C-12.42398437 12.38449219 -12.21515625 11.70257813 -12 11 C-11.34 10.67 -10.68 10.34 -10 10 C-9.01 10.33 -8.02 10.66 -7 11 C-7 9.35 -7 7.7 -7 6 C-6.34 6 -5.68 6 -5 6 C-4.67 4.35 -4.34 2.7 -4 1 C-2.68 0.67 -1.36 0.34 0 0 Z " fill="#6340B2" transform="translate(392,383)"/>
<path d="M0 0 C0.495 0.99 0.495 0.99 1 2 C-5.06828135 2.33507946 -11.13707837 2.6562092 -17.20678711 2.96435547 C-19.27209391 3.07118448 -21.33720632 3.18184266 -23.40209961 3.29638672 C-26.36790037 3.46024311 -29.33412456 3.61037658 -32.30078125 3.7578125 C-33.68841423 3.83891769 -33.68841423 3.83891769 -35.1040802 3.92166138 C-36.39507881 3.98195023 -36.39507881 3.98195023 -37.7121582 4.04345703 C-38.46938675 4.08342804 -39.2266153 4.12339905 -40.00679016 4.1645813 C-42 4 -42 4 -45 2 C-29.99305506 -0.19709521 -15.1448587 -0.21919747 0 0 Z " fill="#7354B9" transform="translate(263,54)"/>
<path d="M0 0 C0.33 0 0.66 0 1 0 C-0.10679612 22.10679612 -0.10679612 22.10679612 -3 25 C-3.15858803 26.55944897 -3.27678579 28.1230879 -3.375 29.6875 C-3.76576919 34.13092386 -4.93084551 37.03412056 -7 41 C-7.18950293 42.39057783 -7.3333584 43.78793843 -7.4375 45.1875 C-8 49 -8 49 -10.03515625 50.73828125 C-10.68355469 51.15464844 -11.33195312 51.57101562 -12 52 C-10.6633258 46.55549779 -9.31487729 41.11665336 -7.828125 35.7109375 C-4.60088108 23.90290296 -2.14616205 12.04968078 0 0 Z " fill="#581294" transform="translate(365,312)"/>
<path d="M0 0 C0 0.66 0 1.32 0 2 C-1.39025391 2.19916016 -1.39025391 2.19916016 -2.80859375 2.40234375 C-4.00613281 2.57894531 -5.20367187 2.75554687 -6.4375 2.9375 C-7.63246094 3.11152344 -8.82742188 3.28554688 -10.05859375 3.46484375 C-12.87955676 3.68985213 -12.87955676 3.68985213 -14 5 C-17.59631415 5.2567871 -21.20812752 5.18973302 -24.8125 5.1875 C-26.37979858 5.1884668 -26.37979858 5.1884668 -27.97875977 5.18945312 C-35.18332757 5.14013364 -41.97321293 4.69247345 -49 3 C-49 2.34 -49 1.68 -49 1 C-48.46117187 1.0721875 -47.92234375 1.144375 -47.3671875 1.21875 C-33.95896301 2.73190386 -19.48559441 3.26695192 -6.2421875 0.4375 C-4 0 -4 0 0 0 Z " fill="#591095" transform="translate(276,452)"/>
<path d="M0 0 C0.33 0 0.66 0 1 0 C1.86076302 16.25885707 -0.85095223 32.30090032 -5 48 C-5.33 48 -5.66 48 -6 48 C-4.26898048 23.53796095 -4.26898048 23.53796095 -2 19 C-1.78217533 17.55487563 -1.61026332 16.10263322 -1.46484375 14.6484375 C-1.37783203 13.79765625 -1.29082031 12.946875 -1.20117188 12.0703125 C-1.0706543 10.73613281 -1.0706543 10.73613281 -0.9375 9.375 C-0.80118164 8.02921875 -0.80118164 8.02921875 -0.66210938 6.65625 C-0.43790708 4.43782728 -0.21735434 2.2191024 0 0 Z " fill="#9E3785" transform="translate(366,288)"/>
<path d="M0 0 C2.97 0.33 5.94 0.66 9 1 C9 1.66 9 2.32 9 3 C9.66 3.33 10.32 3.66 11 4 C11.5775 4.309375 12.155 4.61875 12.75 4.9375 C15.43359409 6.20475276 18.17436444 7.10093414 21 8 C21 8.66 21 9.32 21 10 C22.65 10 24.3 10 26 10 C26 10.99 26 11.98 26 13 C20.61196611 12.45106238 16.59204741 10.53479294 11.875 8.0625 C11.17246094 7.70220703 10.46992188 7.34191406 9.74609375 6.97070312 C8.40685487 6.28336219 7.06918245 5.59295706 5.73339844 4.89892578 C3.83193929 3.91284513 1.9197624 2.94993425 0 2 C0 1.34 0 0.68 0 0 Z " fill="#6743B3" transform="translate(155,441)"/>
<path d="M0 0 C2 2 2 2 2.125 4.625 C2.08375 5.40875 2.0425 6.1925 2 7 C1.01 7 0.02 7 -1 7 C-1.66 12.28 -2.32 17.56 -3 23 C-3.66 23 -4.32 23 -5 23 C-4.67 25.97 -4.34 28.94 -4 32 C-5.485 32.495 -5.485 32.495 -7 33 C-7.45490578 26.23448638 -5.76605002 20.20153222 -4.0625 13.6875 C-3.78470703 12.59115234 -3.50691406 11.49480469 -3.22070312 10.36523438 C-1.16205752 2.32411504 -1.16205752 2.32411504 0 0 Z " fill="#8668C3" transform="translate(81,181)"/>
<path d="M0 0 C0.89074219 -0.01224609 1.78148437 -0.02449219 2.69921875 -0.03710938 C8.93659957 -0.05068858 14.68542757 0.74335937 20.75 2.1875 C20.75 2.5175 20.75 2.8475 20.75 3.1875 C8.38407511 3.3449163 -3.90415863 2.86457648 -16.25 2.1875 C-16.25 1.8575 -16.25 1.5275 -16.25 1.1875 C-10.81449452 0.06260234 -5.52433523 0.00392911 0 0 Z " fill="#AE479C" transform="translate(245.25,63.8125)"/>
<path d="M0 0 C0.33 0.66 0.66 1.32 1 2 C1.99 1.67 2.98 1.34 4 1 C4.12117188 1.64066406 4.24234375 2.28132813 4.3671875 2.94140625 C5.1465928 6.96433667 5.96405775 10.8781957 7.125 14.8125 C7.92631836 17.7315883 8.18188529 19.99889274 8 23 C5.04912342 20.04912342 4.22668638 16.51837418 2.875 12.625 C2.59785156 11.85671875 2.32070312 11.0884375 2.03515625 10.296875 C1.77347656 9.55179687 1.51179688 8.80671875 1.2421875 8.0390625 C1.0035498 7.36053223 0.76491211 6.68200195 0.51904297 5.98291016 C0 4 0 4 0 0 Z " fill="#8063BF" transform="translate(79,338)"/>
<path d="M0 0 C0.66 0 1.32 0 2 0 C2.33 1.65 2.66 3.3 3 5 C4.36125 5.37125 4.36125 5.37125 5.75 5.75 C9.14075997 7.05413845 10.76921688 8.16862142 13 11 C13 11.99 13 12.98 13 14 C9.24269753 12.3718356 6.383177 9.98598083 3.25 7.375 C2.26515625 6.55773437 1.2803125 5.74046875 0.265625 4.8984375 C-0.85585937 3.95871094 -0.85585937 3.95871094 -2 3 C-1.34 2.67 -0.68 2.34 0 2 C0 1.34 0 0.68 0 0 Z " fill="#6842B7" transform="translate(130,420)"/>
<path d="M0 0 C0.33 0 0.66 0 1 0 C0.855625 1.11375 0.71125 2.2275 0.5625 3.375 C0.02922028 7.57363889 -0.3582406 11.77942135 -0.71875 15.99609375 C-1 18 -1 18 -2 19 C-2.19313021 20.99567879 -2.38320963 22.99209519 -2.5234375 24.9921875 C-3.10805154 27.45523355 -4.18250422 28.30081347 -6 30 C-5.49623933 22.89764367 -4.25597479 16.25158534 -2.4375 9.375 C-2.20353516 8.46621094 -1.96957031 7.55742187 -1.72851562 6.62109375 C-1.15887311 4.41227583 -0.58265317 2.20541448 0 0 Z " fill="#A23686" transform="translate(136,174)"/>
<path d="M0 0 C0.33 0.66 0.66 1.32 1 2 C0.13367318 4.47184035 -0.78958491 6.84395592 -1.8125 9.25 C-2.36233531 10.56701727 -2.91053482 11.88471876 -3.45703125 13.203125 C-3.72080566 13.83927734 -3.98458008 14.47542969 -4.25634766 15.13085938 C-5.28547206 17.71752269 -6.15582835 20.34806565 -7 23 C-7.33 23 -7.66 23 -8 23 C-8.34656486 18.37913515 -7.49605732 15.1209495 -5.75390625 10.9296875 C-4.98980198 8.9738973 -4.46803132 7.04479705 -4 5 C-3.34 5 -2.68 5 -2 5 C-2 3.68 -2 2.36 -2 1 C-1.34 0.67 -0.68 0.34 0 0 Z " fill="#560E99" transform="translate(147,139)"/>
<path d="M0 0 C1.12377697 3.30435084 0.89554742 5.0506862 -0.4375 8.25 C-0.72496094 8.95640625 -1.01242188 9.6628125 -1.30859375 10.390625 C-1.53675781 10.92171875 -1.76492187 11.4528125 -2 12 C-2.66 12 -3.32 12 -4 12 C-4.103125 12.680625 -4.20625 13.36125 -4.3125 14.0625 C-5.14725019 17.62915989 -6.49472754 20.66222194 -8 24 C-9.17216299 20.61872398 -8.87482122 18.96011851 -7.3828125 15.7421875 C-7.02316406 14.95199219 -6.66351563 14.16179687 -6.29296875 13.34765625 C-5.90753906 12.53167969 -5.52210938 11.71570313 -5.125 10.875 C-4.55845703 9.63943359 -4.55845703 9.63943359 -3.98046875 8.37890625 C-2.68778765 5.5681299 -1.38361414 2.76722829 0 0 Z " fill="#A5388A" transform="translate(153,128)"/>
<path d="M0 0 C0.66 0.33 1.32 0.66 2 1 C1.41161801 5.84111765 -0.07653116 9.96071195 -2.0625 14.375 C-2.34416016 15.01566406 -2.62582031 15.65632813 -2.91601562 16.31640625 C-3.60459421 17.88029659 -4.30144711 19.44053941 -5 21 C-5.33 21 -5.66 21 -6 21 C-5.42381249 15.85404946 -4.25256722 11.44921945 -2.4375 6.5625 C-1.98246094 5.32628906 -1.52742188 4.09007812 -1.05859375 2.81640625 C-0.70925781 1.88699219 -0.35992187 0.95757812 0 0 Z " fill="#7051B4" transform="translate(410,341)"/>
<path d="M0 0 C-3.49205938 3.59476701 -7.04033675 6.92026191 -11 10 C-11.66 10 -12.32 10 -13 10 C-12.67 8.68 -12.34 7.36 -12 6 C-11.01 6 -10.02 6 -9 6 C-9 5.01 -9 4.02 -9 3 C-8.34 3 -7.68 3 -7 3 C-7 2.34 -7 1.68 -7 1 C-3.375 -1.125 -3.375 -1.125 0 0 Z " fill="#6540B1" transform="translate(358,425)"/>
<path d="M0 0 C0.99 0.33 1.98 0.66 3 1 C-0.3 5.95 -3.6 10.9 -7 16 C-8 12 -8 12 -7 9 C-6.01 9 -5.02 9 -4 9 C-3.8453125 7.329375 -3.8453125 7.329375 -3.6875 5.625 C-3.460625 4.42875 -3.23375 3.2325 -3 2 C-2.01 1.34 -1.02 0.68 0 0 Z " fill="#B13C7F" transform="translate(333,400)"/>
<path d="M0 0 C0.99773437 0.02320313 1.99546875 0.04640625 3.0234375 0.0703125 C4.52777344 0.09738281 4.52777344 0.09738281 6.0625 0.125 C6.83335937 0.14820313 7.60421875 0.17140625 8.3984375 0.1953125 C8.3984375 0.8553125 8.3984375 1.5153125 8.3984375 2.1953125 C10.3784375 2.8553125 12.3584375 3.5153125 14.3984375 4.1953125 C14.3984375 4.5253125 14.3984375 4.8553125 14.3984375 5.1953125 C7.847539 4.73771297 1.7230533 3.9852981 -4.6015625 2.1953125 C-2.6015625 0.1953125 -2.6015625 0.1953125 0 0 Z " fill="#6743B4" transform="translate(201.6015625,457.8046875)"/>
<path d="M0 0 C0.66 0 1.32 0 2 0 C1.67 1.65 1.34 3.3 1 5 C0.34 5 -0.32 5 -1 5 C-1.2475 5.7425 -1.495 6.485 -1.75 7.25 C-3.0983193 10.21630245 -4.64183849 11.79397794 -7 14 C-7.33 14.66 -7.66 15.32 -8 16 C-8.66 16 -9.32 16 -10 16 C-8.56007449 11.89771221 -6.55506592 8.69601883 -4 5.1875 C-3.29875 4.21167969 -2.5975 3.23585938 -1.875 2.23046875 C-1.25625 1.49441406 -0.6375 0.75835937 0 0 Z " fill="#7153B5" transform="translate(114,118)"/>
<path d="M0 0 C2.1875 0.3125 2.1875 0.3125 4 1 C-2.92938497 9.81548975 -2.92938497 9.81548975 -9 11 C-8.06558465 9.72689688 -7.12732889 8.456612 -6.1875 7.1875 C-5.66542969 6.47980469 -5.14335938 5.77210937 -4.60546875 5.04296875 C-1.58951382 1.20514776 -1.58951382 1.20514776 0 0 Z " fill="#6B49B2" transform="translate(131,99)"/>
<path d="M0 0 C-0.33 1.65 -0.66 3.3 -1 5 C-6.445 6.485 -6.445 6.485 -12 8 C-10.33333333 6.33333333 -8.66666667 4.66666667 -7 3 C-6.484375 2.401875 -5.96875 1.80375 -5.4375 1.1875 C-4 0 -4 0 0 0 Z " fill="#5F39B3" transform="translate(149,87)"/>
<path d="M0 0 C0.66 0 1.32 0 2 0 C2.433125 1.2065625 2.433125 1.2065625 2.875 2.4375 C3.73262568 5.1326468 3.73262568 5.1326468 6 6 C6 6.99 6 7.98 6 9 C6.639375 9.185625 7.27875 9.37125 7.9375 9.5625 C10 11 10 11 10.75 14.625 C10.87375 16.295625 10.87375 16.295625 11 18 C7.67140292 14.95124073 5.49564707 11.78089042 3.25 7.875 C2.63640625 6.82054687 2.0228125 5.76609375 1.390625 4.6796875 C0 2 0 2 0 0 Z " fill="#AB3B82" transform="translate(155,390)"/>
<path d="M0 0 C2.078125 3.6953125 2.078125 3.6953125 1.375 6.4375 C-0.15213675 9.28352757 -1.82069805 11.61638849 -4 14 C-4.66 14 -5.32 14 -6 14 C-4.50829734 9.0276578 -2.39542583 4.58154261 0 0 Z " fill="#54139D" transform="translate(346,380)"/>
<path d="M0 0 C0.33 0 0.66 0 1 0 C1.2258868 4.41595304 1.42767834 8.83268565 1.625 13.25 C1.68945312 14.50425781 1.75390625 15.75851562 1.8203125 17.05078125 C1.871875 18.25605469 1.9234375 19.46132813 1.9765625 20.703125 C2.02893066 21.81333008 2.08129883 22.92353516 2.13525391 24.06738281 C2.00051254 26.98888697 1.52929484 28.54686494 0 31 C-0.33 31 -0.66 31 -1 31 C-0.67 20.77 -0.34 10.54 0 0 Z " fill="#490EA4" transform="translate(370,248)"/>
<path d="M0 0 C1.14583407 1.14583407 2.2910195 2.2923216 3.43359375 3.44140625 C4.54059434 4.54288564 5.65895658 5.63300206 6.78515625 6.71484375 C10.07547883 9.90736481 12.9699164 12.82041613 15 17 C15 17.66 15 18.32 15 19 C14.34 19 13.68 19 13 19 C11.6328125 17.171875 11.6328125 17.171875 10.125 14.75 C7.99776525 11.42880261 5.84973615 8.74013091 3 6 C3 5.34 3 4.68 3 4 C2.01 4 1.02 4 0 4 C0 2.68 0 1.36 0 0 Z " fill="#A3378E" transform="translate(316,96)"/>
<path d="M0 0 C0 3.63195496 -0.95453155 4.74713911 -3 7.6875 C-3.556875 8.49574219 -4.11375 9.30398438 -4.6875 10.13671875 C-5.120625 10.75160156 -5.55375 11.36648438 -6 12 C-6.5534764 9.92446352 -7 8.15634036 -7 6 C-6.34 6 -5.68 6 -5 6 C-4.67 4.35 -4.34 2.7 -4 1 C-2.68 0.67 -1.36 0.34 0 0 Z " fill="#6745B6" transform="translate(392,383)"/>
<path d="M0 0 C3 2 3 2 3.625 3.953125 C3.810625 5.09007812 3.810625 5.09007812 4 6.25 C4.58596473 9.34866093 5.18728462 11.37456923 6.625 14.25 C8.06819808 17.13639615 8.28010342 18.82549455 8 22 C5.7848871 18.67733065 4.35167744 15.24712816 2.875 11.5625 C2.59785156 10.89412109 2.32070312 10.22574219 2.03515625 9.53710938 C0.64788277 6.08942725 0 3.77146196 0 0 Z " fill="#A93883" transform="translate(139,352)"/>
<path d="M0 0 C0.33 0 0.66 0 1 0 C0.59060025 6.76215448 -0.56953809 12.67162748 -3 19 C-3.33 19 -3.66 19 -4 19 C-4.09765625 12.84765625 -4.09765625 12.84765625 -4 11 C-3.67 10.67 -3.34 10.34 -3 10 C-2.95919217 8.00041636 -2.95745644 5.99954746 -3 4 C-2.01 3.67 -1.02 3.34 0 3 C0 2.01 0 1.02 0 0 Z " fill="#A63782" transform="translate(359,336)"/>
<path d="M0 0 C3.64939813 0.91234953 5.71592813 1.72321202 8.4375 4.375 C10 7 10 7 9.59765625 9.1640625 C9.40042969 9.76992188 9.20320313 10.37578125 9 11 C7.68141572 9.73548068 6.37032369 8.46314525 5.0625 7.1875 C4.33160156 6.47980469 3.60070312 5.77210938 2.84765625 5.04296875 C1 3 1 3 0 0 Z " fill="#6A49B5" transform="translate(116,409)"/>
<path d="M0 0 C1.65425777 3.30851555 3.20907291 6.61105538 4.6875 10 C5.14511719 11.03125 5.60273438 12.0625 6.07421875 13.125 C7 16 7 16 6 20 C4.68 16.37 3.36 12.74 2 9 C1.01 9 0.02 9 -1 9 C-0.67 6.03 -0.34 3.06 0 0 Z " fill="#A33783" transform="translate(349,148)"/>
<path d="M0 0 C4.41889613 1.35021826 6.34345343 3.26115668 9 7 C7.02 7.66 5.04 8.32 3 9 C2.34 8.01 1.68 7.02 1 6 C1.99 6 2.98 6 4 6 C4 5.01 4 4.02 4 3 C2.02 3.33 0.04 3.66 -2 4 C-1.34 2.68 -0.68 1.36 0 0 Z " fill="#C43C7C" transform="translate(296,80)"/>
<path d="M0 0 C0.33 1.32 0.66 2.64 1 4 C0.01 4.66 -0.98 5.32 -2 6 C-2.433125 7.1446875 -2.433125 7.1446875 -2.875 8.3125 C-4.28155088 11.67259378 -6.34417707 13.5538473 -9 16 C-9 11.86002304 -6.83167083 9.54392969 -4.5 6.3125 C-4.07074219 5.70599609 -3.64148438 5.09949219 -3.19921875 4.47460938 C-2.13906862 2.97861974 -1.07034429 1.488713 0 0 Z " fill="#5E1494" transform="translate(336,400)"/>
<path d="M0 0 C0.33 1.65 0.66 3.3 1 5 C-3.06368679 5.77403558 -6.86425173 6.0984702 -11 6 C-8.24029211 2.78034079 -4.3526723 0 0 0 Z " fill="#6641B6" transform="translate(173,71)"/>
<path d="M0 0 C2.31 0.66 4.62 1.32 7 2 C7 2.99 7 3.98 7 5 C5.68 5 4.36 5 3 5 C3 5.66 3 6.32 3 7 C1.68 7 0.36 7 -1 7 C-1 6.01 -1 5.02 -1 4 C-0.34 4 0.32 4 1 4 C0.67 2.68 0.34 1.36 0 0 Z " fill="#5931AF" transform="translate(313,65)"/>
<path d="M0 0 C2.97 0.33 5.94 0.66 9 1 C9 1.66 9 2.32 9 3 C9.66 3.33 10.32 3.66 11 4 C11 4.66 11 5.32 11 6 C6.87248551 5.39301257 3.6678852 3.96189209 0 2 C0 1.34 0 0.68 0 0 Z " fill="#5D37AF" transform="translate(155,441)"/>
<path d="M0 0 C1.32 0.33 2.64 0.66 4 1 C4.144375 1.928125 4.28875 2.85625 4.4375 3.8125 C4.92100111 7.00725111 4.92100111 7.00725111 6 10 C6.66 10 7.32 10 8 10 C8 11.98 8 13.96 8 16 C5.70351643 13.10414095 3.95652443 10.1827969 2.3125 6.875 C1.65701172 5.57175781 1.65701172 5.57175781 0.98828125 4.2421875 C0 2 0 2 0 0 Z " fill="#AE397A" transform="translate(147,374)"/>
<path d="M0 0 C1.98510058 1.63707833 2.91847304 2.50096147 3.34057617 5.0847168 C3.32486572 5.86500244 3.30915527 6.64528809 3.29296875 7.44921875 C3.28330078 8.29677734 3.27363281 9.14433594 3.26367188 10.01757812 C3.23853516 10.89865234 3.21339844 11.77972656 3.1875 12.6875 C3.16719727 14.02651367 3.16719727 14.02651367 3.14648438 15.39257812 C3.11114079 17.59566166 3.06180493 19.79752582 3 22 C2.67 22 2.34 22 2 22 C0.71702277 14.58851545 -0.25515919 7.52719602 0 0 Z " fill="#A488D8" transform="translate(71,294)"/>
<path d="M0 0 C-0.75 1.9375 -0.75 1.9375 -2 4 C-3.625 4.6875 -3.625 4.6875 -6 5 C-6.67289063 5.09023437 -7.34578125 5.18046875 -8.0390625 5.2734375 C-10.02385541 5.53293339 -12.01180053 5.7680434 -14 6 C-9.95001278 2.59801074 -5.36373351 0 0 0 Z " fill="#6946B4" transform="translate(187,65)"/>
<path d="M0 0 C0.33 0.66 0.66 1.32 1 2 C1.66 2 2.32 2 3 2 C3.33 4.64 3.66 7.28 4 10 C3.34 10 2.68 10 2 10 C1.67 10.99 1.34 11.98 1 13 C0.67 13 0.34 13 0 13 C0 8.71 0 4.42 0 0 Z " fill="#AE3B73" transform="translate(354,166)"/>
<path d="M0 0 C0.99 0 1.98 0 3 0 C2.82374165 2.37948772 2.30280227 3.70225849 0.59765625 5.37890625 C-0.90649092 6.62115486 -2.45129851 7.81376056 -4 9 C-4 7.35 -4 5.7 -4 4 C-3.01 3.67 -2.02 3.34 -1 3 C-0.67 2.01 -0.34 1.02 0 0 Z " fill="#6A48B5" transform="translate(369,410)"/>
<path d="M0 0 C0.99 0 1.98 0 3 0 C2.42365861 4.75481646 0.44931479 7.97048212 -2 12 C-2.66 11.34 -3.32 10.68 -4 10 C-3.67 9.01 -3.34 8.02 -3 7 C-2.34 7.33 -1.68 7.66 -1 8 C-0.67 5.36 -0.34 2.72 0 0 Z " fill="#7C5CBC" transform="translate(401,362)"/>
<path d="M0 0 C0.33 1.32 0.66 2.64 1 4 C1.66 4 2.32 4 3 4 C3.06058594 4.6290625 3.12117188 5.258125 3.18359375 5.90625 C3.70995507 11.28323337 4.30546457 16.64215527 5 22 C2.85773643 18.78660465 2.22972551 16.43016168 1.375 12.6875 C1.11460938 11.57761719 0.85421875 10.46773438 0.5859375 9.32421875 C0.0237766 6.13489257 -0.10749599 3.22976591 0 0 Z " fill="#B19AE0" transform="translate(74,316)"/>
<path d="M0 0 C1.14926266 0.95421808 2.29430541 1.91352045 3.4375 2.875 C4.07558594 3.40867187 4.71367187 3.94234375 5.37109375 4.4921875 C7 6 7 6 8 8 C5.69 8 3.38 8 1 8 C0.814375 7.071875 0.814375 7.071875 0.625 6.125 C0.12802644 3.80879168 0.12802644 3.80879168 -2 2 C-1.34 2 -0.68 2 0 2 C0 1.34 0 0.68 0 0 Z " fill="#6E4ABB" transform="translate(368,99)"/>
<path d="M0 0 C0 2.66666667 0 5.33333333 0 8 C-1.00596297 7.0479279 -2.00461563 6.08812654 -3 5.125 C-3.556875 4.59132813 -4.11375 4.05765625 -4.6875 3.5078125 C-6 2 -6 2 -6 0 C-3.50907189 -1.24546405 -2.58919267 -0.7767578 0 0 Z " fill="#4F0FA2" transform="translate(326,99)"/>
<path d="M0 0 C-7.28571429 4.57142857 -7.28571429 4.57142857 -12 4 C-12 4.66 -12 5.32 -12 6 C-13.98 6.33 -15.96 6.66 -18 7 C-14.2198453 3.35019546 -5.28457735 -2.64228868 0 0 Z " fill="#AA3892" transform="translate(219,69)"/>
<path d="M0 0 C0.66 0.33 1.32 0.66 2 1 C-1.5062167 7.17761989 -1.5062167 7.17761989 -4 9 C-6.6875 9.1875 -6.6875 9.1875 -9 9 C-6 6 -3 3 0 0 Z " fill="#5A0F9A" transform="translate(310,431)"/>
<path d="M0 0 C2.66666667 2.66666667 5.33333333 5.33333333 8 8 C7.67 8.66 7.34 9.32 7 10 C4.69 9.34 2.38 8.68 0 8 C0 5.36 0 2.72 0 0 Z " fill="#56129A" transform="translate(162,404)"/>
<path d="M0 0 C1.32 0.33 2.64 0.66 4 1 C0.04 3.64 -3.92 6.28 -8 9 C-8.33 8.01 -8.66 7.02 -9 6 C-8.01 6 -7.02 6 -6 6 C-6 5.34 -6 4.68 -6 4 C-5.34 4 -4.68 4 -4 4 C-4 3.34 -4 2.68 -4 2 C-2.68 2 -1.36 2 0 2 C0 1.34 0 0.68 0 0 Z " fill="#550D99" transform="translate(197,75)"/>
<path d="M0 0 C1.134375 0.020625 2.26875 0.04125 3.4375 0.0625 C-1.3125 4.9375 -1.3125 4.9375 -3.5625 6.0625 C-3.94468767 4.40635343 -4.27645102 2.73792976 -4.5625 1.0625 C-3.5625 0.0625 -3.5625 0.0625 0 0 Z " fill="#643EB5" transform="translate(361.5625,418.9375)"/>
<path d="M0 0 C2.34914492 2.34914492 2.73140357 3.95679446 3.625 7.125 C3.88539063 8.03507812 4.14578125 8.94515625 4.4140625 9.8828125 C4.70410156 10.93082031 4.70410156 10.93082031 5 12 C4.01 11.67 3.02 11.34 2 11 C2 10.01 2 9.02 2 8 C1.34 8 0.68 8 0 8 C0 5.36 0 2.72 0 0 Z " fill="#591198" transform="translate(139,356)"/>
<path d="M0 0 C1.64826111 2.96687001 2.44271087 5.65626525 3 9 C3.33 9 3.66 9 4 9 C4 11.31 4 13.62 4 16 C3.34 16 2.68 16 2 16 C1.66104344 14.27192682 1.32908475 12.54248026 1 10.8125 C0.814375 9.84957031 0.62875 8.88664062 0.4375 7.89453125 C0.03122388 5.2065794 -0.07933572 2.71228981 0 0 Z " fill="#451F9A" transform="translate(73,304)"/>
<path d="M0 0 C0.66 0.99 1.32 1.98 2 3 C1.125 5.6875 1.125 5.6875 0 8 C-0.66 8 -1.32 8 -2 8 C-2 9.65 -2 11.3 -2 13 C-2.66 13 -3.32 13 -4 13 C-3.40895235 8.15340923 -2.02055843 4.39251833 0 0 Z " fill="#7F60C0" transform="translate(88,162)"/>
<path d="M0 0 C0.66 0 1.32 0 2 0 C2 1.65 2 3.3 2 5 C2.66 5 3.32 5 4 5 C4 8.63 4 12.26 4 16 C3.67 16 3.34 16 3 16 C2.01 10.72 1.02 5.44 0 0 Z " fill="#5A1098" transform="translate(359,176)"/>
<path d="M0 0 C2.96404505 2.80804268 5.44499019 5.18315774 7 9 C5.35 8.67 3.7 8.34 2 8 C1.33333333 5.33333333 0.66666667 2.66666667 0 0 Z " fill="#7354BA" transform="translate(379,111)"/>
<path d="M0 0 C3.63 0.33 7.26 0.66 11 1 C11 1.66 11 2.32 11 3 C11.99 3.33 12.98 3.66 14 4 C12 5 12 5 9.1796875 4.22265625 C8.08914062 3.83980469 6.99859375 3.45695312 5.875 3.0625 C4.77929688 2.68222656 3.68359375 2.30195313 2.5546875 1.91015625 C1.71164063 1.60980469 0.86859375 1.30945313 0 1 C0 0.67 0 0.34 0 0 Z " fill="#7151B5" transform="translate(181,454)"/>
<path d="M0 0 C0.33 0 0.66 0 1 0 C1 2.64 1 5.28 1 8 C0.34 8 -0.32 8 -1 8 C-1.33 9.32 -1.66 10.64 -2 12 C-3.12377697 8.69564916 -2.89554742 6.9493138 -1.5625 3.75 C-1.27503906 3.04359375 -0.98757812 2.3371875 -0.69140625 1.609375 C-0.46324219 1.07828125 -0.23507813 0.5471875 0 0 Z " fill="#9F3589" transform="translate(140,160)"/>
<path d="M0 0 C3.44756956 1.21130822 5.49405626 2.38510218 8 5 C10.09989652 6.17574711 10.09989652 6.17574711 12 7 C11.67 7.99 11.34 8.98 11 10 C9.16375669 8.52444734 7.3310715 7.04446569 5.5 5.5625 C4.4790625 4.73878906 3.458125 3.91507812 2.40625 3.06640625 C1.6121875 2.38449219 0.818125 1.70257813 0 1 C0 0.67 0 0.34 0 0 Z " fill="#691593" transform="translate(298,80)"/>
<path d="M0 0 C3.75376152 1.25125384 4.24073289 2.5652404 6 6 C6 6.66 6 7.32 6 8 C5.01 8 4.02 8 3 8 C2.71125 7.38125 2.4225 6.7625 2.125 6.125 C1.06279958 3.86674235 1.06279958 3.86674235 -1 2 C-0.67 1.34 -0.34 0.68 0 0 Z " fill="#6544B1" transform="translate(388,124)"/>
<path d="M0 0 C0.99 0.33 1.98 0.66 3 1 C0.69 4.3 -1.62 7.6 -4 11 C-5 9 -5 9 -4.0625 5.875 C-3.711875 4.92625 -3.36125 3.9775 -3 3 C-2.01 3 -1.02 3 0 3 C0 2.01 0 1.02 0 0 Z " fill="#570F99" transform="translate(165,105)"/>
<path d="M0 0 C4.54805635 -0.17835515 7.8794254 0.00214565 12 2 C12 2.33 12 2.66 12 3 C4.61538462 3.36923077 4.61538462 3.36923077 1.5 1.5 C1.005 1.005 0.51 0.51 0 0 Z " fill="#5C3AAD" transform="translate(284,58)"/>
<path d="M0 0 C0 0.33 0 0.66 0 1 C-4.67201205 2.20568053 -9.21496292 2.09382426 -14 2 C-8.7868679 -0.64982856 -5.8570138 -1.19802555 0 0 Z " fill="#7756B9" transform="translate(213,59)"/>
<path d="M0 0 C0.99 0 1.98 0 3 0 C3.33 1.98 3.66 3.96 4 6 C4.66 6 5.32 6 6 6 C5.67 7.32 5.34 8.64 5 10 C4.16121545 8.71186658 3.32913217 7.41936744 2.5 6.125 C2.0359375 5.40570313 1.571875 4.68640625 1.09375 3.9453125 C0 2 0 2 0 0 Z " fill="#7F61BA" transform="translate(96,380)"/>
<path d="M0 0 C0.75 1.6875 0.75 1.6875 1 4 C-0.8125 6.75 -0.8125 6.75 -3 9 C-3.66 9 -4.32 9 -5 9 C-4.67 7.68 -4.34 6.36 -4 5 C-3.34 5 -2.68 5 -2 5 C-1.34 3.35 -0.68 1.7 0 0 Z " fill="#3F13A7" transform="translate(108,129)"/>
<path d="M0 0 C2.0625 0.4375 2.0625 0.4375 4 1 C3.6875 2.9375 3.6875 2.9375 3 5 C2.01 5.33 1.02 5.66 0 6 C-0.38218767 4.34385343 -0.71395102 2.67542976 -1 1 C-0.67 0.67 -0.34 0.34 0 0 Z " fill="#5530AB" transform="translate(381,393)"/>
<path d="M0 0 C0.33 0 0.66 0 1 0 C0.85764543 1.72945653 0.71095618 3.45855654 0.5625 5.1875 C0.48128906 6.15042969 0.40007812 7.11335938 0.31640625 8.10546875 C0.02333849 10.78649602 -0.42703754 13.3662986 -1 16 C-1.33 16 -1.66 16 -2 16 C-2.33 13.69 -2.66 11.38 -3 9 C-2.34 9 -1.68 9 -1 9 C-0.67 6.03 -0.34 3.06 0 0 Z " fill="#B196E1" transform="translate(421,301)"/>
<path d="M0 0 C0.515625 0.391875 1.03125 0.78375 1.5625 1.1875 C-5.86607143 3.61607143 -5.86607143 3.61607143 -9.4375 2.1875 C-3.0375 -1.0125 -3.0375 -1.0125 0 0 Z " fill="#785BBB" transform="translate(297.4375,457.8125)"/>
<path d="M0 0 C1.2065625 0.0309375 1.2065625 0.0309375 2.4375 0.0625 C0.79580472 2.08304804 -0.87161778 4.08293058 -2.5625 6.0625 C-2.8925 6.0625 -3.2225 6.0625 -3.5625 6.0625 C-3.605221 4.39638095 -3.60313832 2.72867115 -3.5625 1.0625 C-2.5625 0.0625 -2.5625 0.0625 0 0 Z " fill="#B13D7F" transform="translate(317.5625,421.9375)"/>
<path d="M0 0 C0.99 0 1.98 0 3 0 C3 0.66 3 1.32 3 2 C3.99 2.33 4.98 2.66 6 3 C5.34 4.32 4.68 5.64 4 7 C0 2.25 0 2.25 0 0 Z " fill="#6B4BB7" transform="translate(104,393)"/>
<path d="M0 0 C0.99 0.33 1.98 0.66 3 1 C1.90931332 4.77545388 1.0916909 7.47043472 -2 10 C-2 8.68 -2 7.36 -2 6 C-1.34 6 -0.68 6 0 6 C0 4.02 0 2.04 0 0 Z " fill="#7151B8" transform="translate(395,373)"/>
<path d="M0 0 C1.32 0.66 2.64 1.32 4 2 C3.34 4.31 2.68 6.62 2 9 C0.59306362 6.37371875 -0.49157276 3.94887797 -1 1 C-0.67 0.67 -0.34 0.34 0 0 Z " fill="#B6386B" transform="translate(345,368)"/>
<path d="M0 0 C2.11180592 2.57089417 3.66306057 4.63060567 4 8 C3.34 8.66 2.68 9.32 2 10 C1.87625 9.360625 1.7525 8.72125 1.625 8.0625 C1.315625 7.0415625 1.315625 7.0415625 1 6 C0.34 5.67 -0.32 5.34 -1 5 C-0.67 3.35 -0.34 1.7 0 0 Z " fill="#6D4CB8" transform="translate(398,138)"/>
<path d="M0 0 C5 2 5 2 10 4 C10 4.33 10 4.66 10 5 C6.63295715 5.2295711 4.58629732 5.33943529 1.625 3.625 C1.08875 3.08875 0.5525 2.5525 0 2 C0 1.34 0 0.68 0 0 Z " fill="#B3398B" transform="translate(278,70)"/>
<path d="M0 0 C1.14926266 0.95421808 2.29430541 1.91352045 3.4375 2.875 C4.07558594 3.40867187 4.71367187 3.94234375 5.37109375 4.4921875 C7 6 7 6 8 8 C5.6875 7.8125 5.6875 7.8125 3 7 C0 2.96551724 0 2.96551724 0 0 Z " fill="#5D1495" transform="translate(175,420)"/>
<path d="M0 0 C0.66 0.33 1.32 0.66 2 1 C2.33 1.99 2.66 2.98 3 4 C2.01 4 1.02 4 0 4 C-0.33 4.66 -0.66 5.32 -1 6 C-1.99 5.01 -2.98 4.02 -4 3 C-2.68 2.01 -1.36 1.02 0 0 Z " fill="#6942B5" transform="translate(155,80)"/>
<path d="M0 0 C2 1 2 1 3 3 C0.36 3.66 -2.28 4.32 -5 5 C-5 4.01 -5 3.02 -5 2 C-3.35 2 -1.7 2 0 2 C0 1.34 0 0.68 0 0 Z " fill="#6D4BB6" transform="translate(305,453)"/>
<path d="M0 0 C1.0625 1.8125 1.0625 1.8125 2 4 C1.67 4.99 1.34 5.98 1 7 C-0.32 5.68 -1.64 4.36 -3 3 C-2.01 2.01 -1.02 1.02 0 0 Z " fill="#AF3980" transform="translate(179,418)"/>
<path d="M0 0 C0.66 0 1.32 0 2 0 C1.46930939 3.82097239 0.50298434 6.06171403 -2 9 C-1.125 2.25 -1.125 2.25 0 0 Z " fill="#8366C0" transform="translate(406,353)"/>
<path d="M0 0 C0.66 0 1.32 0 2 0 C2.33 1.98 2.66 3.96 3 6 C2.01 6.33 1.02 6.66 0 7 C0 4.69 0 2.38 0 0 Z " fill="#704CB5" transform="translate(74,207)"/>
<path d="M0 0 C2.475 0.495 2.475 0.495 5 1 C5 2.98 5 4.96 5 7 C2.47411298 4.63707344 1.11179163 3.33537489 0 0 Z " fill="#561198" transform="translate(335,120)"/>
<path d="M0 0 C0 0.99 0 1.98 0 3 C-2.5 5.1875 -2.5 5.1875 -5 7 C-5.33 5.35 -5.66 3.7 -6 2 C-4.7934375 1.7834375 -4.7934375 1.7834375 -3.5625 1.5625 C-1.07896294 1.25864751 -1.07896294 1.25864751 0 0 Z " fill="#550F99" transform="translate(174,96)"/>
<path d="M0 0 C3.65316671 1.24976756 4.78065836 1.67098753 7 5 C4.03 4.67 1.06 4.34 -2 4 C-1.34 2.68 -0.68 1.36 0 0 Z " fill="#B53E87" transform="translate(296,80)"/>
<path d="M0 0 C0.66 0 1.32 0 2 0 C2.33 2.64 2.66 5.28 3 8 C2.34 8 1.68 8 1 8 C0.67 5.36 0.34 2.72 0 0 Z " fill="#7352B9" transform="translate(416,187)"/>
</svg>
